<svg width="131.000000" height="24.000000" viewBox="0 0 131 24" fill="none" xmlns="http://www.w3.org/2000/svg" xmlns:xlink="http://www.w3.org/1999/xlink">
	<desc>
			Created with Pixso.
	</desc>
	<defs/>
	<path d="M100.61 1.38C100.61 2.39 99.72 3.22 98.65 3.22C97.57 3.22 96.68 2.39 96.68 1.38C96.68 0.37 97.57 -0.46 98.65 -0.46C99.72 -0.46 100.61 0.37 100.61 1.38ZM13.52 5.56L9.98 5.56C9.85 4.19 8.76 3.39 7 3.39C5.19 3.39 4.19 4.21 4.19 5.34C4.17 6.59 5.44 7.16 6.96 7.5L8.52 7.88C11.56 8.56 13.75 10.1 13.75 13.01C13.75 16.21 11.24 18.24 6.98 18.24C2.75 18.24 0.04 16.29 -0.05 12.52L3.52 12.52C3.64 14.26 5.02 15.15 6.94 15.15C8.82 15.15 10.02 14.28 10.03 13C10.02 11.83 8.97 11.28 7.06 10.82L5.16 10.34C2.22 9.63 0.4 8.16 0.41 5.58C0.4 2.41 3.2 0.3 7.02 0.3C10.91 0.3 13.47 2.45 13.52 5.56ZM45.01 0.54L48.64 0.54L48.64 18L45.01 18L45.01 0.54ZM66.33 9.25C66.33 14.71 63.11 18 57.79 18L51.61 18L51.61 0.54L57.85 0.54C63.11 0.54 66.33 3.82 66.33 9.25ZM55.3 3.7L55.3 14.83L57.64 14.83C60.92 14.83 62.65 13.14 62.65 9.25C62.65 5.37 60.92 3.7 57.65 3.7L55.3 3.7ZM23.72 16.18C23.08 17.4 21.83 18.24 19.89 18.24C17.39 18.24 15.55 16.93 15.55 14.34C15.55 11.41 17.87 10.55 20.46 10.31C22.74 10.08 23.63 9.97 23.63 9.13L23.63 9.08C23.63 8 22.93 7.38 21.69 7.38C20.39 7.38 19.61 8.02 19.36 8.9L16.01 8.62C16.51 6.24 18.57 4.74 21.71 4.74C24.63 4.74 27.27 6.05 27.27 9.16L27.27 18L23.82 18L23.82 16.18L23.72 16.18ZM80.89 14.25C80.38 16.68 78.2 18.25 74.96 18.25C70.92 18.25 68.46 15.66 68.46 11.51C68.46 7.47 70.96 4.74 74.81 4.74C78.27 4.74 80.97 6.93 80.97 11.38L80.97 12.38L72.05 12.38L72.05 12.39C72.05 14.34 73.2 15.54 75.02 15.54C76.23 15.54 77.16 15.02 77.53 14.02L80.89 14.25ZM88.65 4.74C91.96 4.74 93.9 6.22 94.23 8.64L90.9 8.84C90.72 8 89.97 7.31 88.71 7.31C87.59 7.31 86.7 7.82 86.71 8.6C86.7 9.24 87.15 9.65 88.37 9.91L90.74 10.4C93.28 10.91 94.52 12.05 94.53 13.94C94.52 16.52 92.09 18.25 88.7 18.25C85.23 18.25 83.1 16.71 82.75 14.2L86.33 14.02C86.55 15.08 87.41 15.63 88.71 15.63C89.97 15.63 90.82 15.08 90.83 14.3C90.82 13.65 90.3 13.23 89.16 13L86.89 12.55C84.33 12.04 83.1 10.77 83.11 8.81C83.1 6.28 85.3 4.74 88.65 4.74ZM115.65 18.12C115.65 21.47 112.98 23.17 109.25 23.17C105.72 23.17 103.7 21.59 103.26 19.53L106.62 19.08C106.92 19.87 107.73 20.57 109.33 20.57C110.9 20.57 112.06 19.87 112.06 18.07L112.06 15.67L111.91 15.67C111.43 16.76 110.26 17.81 108.17 17.81C105.22 17.81 102.86 15.78 102.86 11.43C102.86 6.97 105.29 4.74 108.16 4.74C110.35 4.74 111.42 6.04 111.91 7.1L112.04 7.1L112.04 4.91L115.65 4.91L115.65 18.12ZM124.65 7.75C123.19 7.75 122.18 8.74 122.18 10.42L122.18 18L118.54 18L118.54 4.91L122.01 4.91L122.01 7.21L122.16 7.21C122.74 5.69 124.15 4.74 126.09 4.74C128.82 4.74 130.61 6.61 130.61 9.66L130.61 18L126.98 18L126.98 10.31C126.99 8.71 126.11 7.75 124.65 7.75ZM35.98 15.09C37.29 15.09 38.49 14.17 38.48 12.42L38.48 4.91L42.11 4.91L42.11 18L38.63 18L38.63 15.62L38.49 15.62C37.9 17.15 36.49 18.16 34.52 18.16C31.88 18.16 30.1 16.3 30.08 13.24L30.08 4.91L33.72 4.91L33.72 12.59C33.72 14.13 34.61 15.09 35.98 15.09ZM100.45 18L96.82 18L96.82 4.91L100.45 4.91L100.45 18ZM74.87 7.44C73.26 7.44 72.13 8.64 72.05 10.13L77.55 10.13C77.54 8.57 76.45 7.44 74.87 7.44ZM106.57 11.41C106.57 13.66 107.54 15.08 109.32 15.08C111.07 15.08 112.08 13.72 112.08 11.41C112.08 9.11 111.09 7.62 109.32 7.62C107.52 7.62 106.57 9.18 106.57 11.41ZM19.02 14.22C19.02 15.22 19.81 15.74 20.93 15.74C22.53 15.74 23.66 14.69 23.66 13.31L23.66 11.92C23.22 12.22 21.93 12.41 21.14 12.52C19.86 12.69 19.02 13.2 19.02 14.22Z" fill="#EEEEEE" fill-opacity="1.000000" fill-rule="evenodd"/>
</svg>
