<svg xmlns="http://www.w3.org/2000/svg" width="257" height="368" fill="none"><ellipse cx="95" cy="356" fill="#000" fill-opacity=".5" rx="95" ry="12"/><rect width="45.031" height="92.944" x="119.196" y="255.056" fill="#00ADB5" rx="3.515"/><rect width="45.031" height="92.944" x="119.196" y="255.056" stroke="#000" stroke-linejoin="round" stroke-width="1.645" rx="3.515"/><rect width="45.031" height="66.105" x="1.395" y="281.895" fill="#EEE" rx="3.515"/><rect width="45.031" height="66.105" x="1.395" y="281.895" stroke="#000" stroke-linejoin="round" stroke-width="1.645" rx="3.515"/><rect width="45.031" height="195.974" x="210.338" y="152.026" fill="#00ADB5" rx="3.515"/><rect width="45.031" height="195.974" x="210.338" y="152.026" stroke="#000" stroke-linejoin="round" stroke-width="1.645" rx="3.515"/><path fill="#00ADB5" d="M61.16 128.16h46.3s-7.38 67.44-17.42 78.49c-10.04 11.06-62.6 41.38-62.6 41.38l-17.7-10.86 33-51.97s-3.63-20.27 18.42-57.04Z"/><path stroke="#000" stroke-width="1.399" d="M107.46 128.16s-7.38 67.44-17.42 78.49c-10.04 11.06-62.6 41.38-62.6 41.38l-17.7-10.86 33-51.97s-3.63-20.27 18.42-57.04h46.3Z"/><path fill="#EEE" d="M28.19 247.42 9.74 237.17.4 247.22s15.74 9.12 26.72 12.7l-4.65-6.13 5.72-6.37Z"/><path stroke="#000" stroke-linejoin="round" stroke-width="1.399" d="m28.19 247.42-5.72 6.37 4.65 6.13C16.14 256.34.4 247.22.4 247.22l9.34-10.05 18.45 10.25Z"/><path fill="#00ADB5" d="m61.36 127.18 50.59-.07s28.12 24.73 31.66 39.24c3.55 14.51-.49 67.17-.49 67.17l-20.45 9.04-21.11-55.62s-22.07-20.9-40.2-59.76Z"/><path stroke="#000" stroke-width="1.399" d="M111.95 127.11s28.12 24.73 31.66 39.24c3.55 14.51-.49 67.17-.49 67.17l-20.45 9.04-21.11-55.62s-22.07-20.9-40.2-59.76l50.59-.07Z"/><mask id="a" fill="#fff"><path fill-rule="evenodd" d="M105.736 44.685a10.538 10.538 0 0 0 3.246-1.886c7.548-6.43 4.311-16.132-.256-21.183-4.568-5.05-32.512-3.036-19.33 20.363.055.034.112.067.17.101 1.473 4.69.23 8.712-1.26 13.538-.61 1.968-1.259 4.07-1.782 6.406l13.981-1.001c3.842-5.218 5.299-10.478 5.231-16.338Z" clip-rule="evenodd"/></mask><path fill="#F5B9AB" fill-rule="evenodd" d="M105.736 44.685a10.538 10.538 0 0 0 3.246-1.886c7.548-6.43 4.311-16.132-.256-21.183-4.568-5.05-32.512-3.036-19.33 20.363.055.034.112.067.17.101 1.473 4.69.23 8.712-1.26 13.538-.61 1.968-1.259 4.07-1.782 6.406l13.981-1.001c3.842-5.218 5.299-10.478 5.231-16.338Z" clip-rule="evenodd" mask="url(#a)"/><path fill="#000" d="M105.454 43.912q1.669-.609 2.995-1.739 4.84-4.123 4.131-10.39-.605-5.347-4.464-9.615-1.567-1.732-6.233-1.97-5.046-.257-9.127 1.674-4.68 2.216-5.745 6.54-1.312 5.33 3.101 13.163l-.716.404.42-.707.17.101q.13.078.224.197.095.119.14.263 1.55 4.934-1.26 14.028-1.247 4.04-1.764 6.343l-.802-.18-.059-.82 13.981-1.002.059.82-.663-.487q5.174-7.026 5.071-15.84-.001-.064.009-.127.009-.063.027-.124.019-.06.046-.117.028-.058.064-.11.036-.052.08-.098.043-.046.094-.085.05-.039.106-.07.055-.03.115-.052Zm.563 1.545-.281-.772.822-.01q.11 9.366-5.391 16.835-.107.146-.265.233-.159.087-.339.1l-13.98 1.002q-.121.008-.239-.018-.079-.018-.153-.05-.074-.033-.14-.08-.067-.047-.123-.105-.055-.059-.099-.127-.043-.069-.072-.144-.03-.076-.043-.156-.014-.08-.012-.16.002-.082.02-.16.53-2.368 1.797-6.47 2.659-8.603 1.262-13.049l.785-.246-.42.707-.17-.101q-.189-.112-.297-.303-4.733-8.402-3.265-14.364 1.252-5.084 6.639-7.633 4.454-2.11 9.913-1.83 5.347.272 7.37 2.509 4.214 4.66 4.878 10.533.808 7.136-4.699 11.827-1.551 1.322-3.498 2.032Z"/><path fill="#00ADB5" d="M86.88 27.84c-2.19 3.05.17 10.57 1.91 12.45-14.41-8-5.29-26.03-.84-22.74.72-6.67 8.37-9.02 13.59-3.39 13.08-10.56 13.77 7.44 9.15 10.18-4.62 2.73-10.22.13-13.12 1.54-2.91 1.41-4.7 9.96-5.64 5.21-.94-4.74-2.31-7.05-5.05-3.25Z"/><path stroke="#000" stroke-width="1.645" d="M86.88 27.84c2.74-3.8 4.11-1.49 5.05 3.25.94 4.75 2.73-3.8 5.64-5.21 2.9-1.41 8.5 1.19 13.12-1.54 4.62-2.74 3.93-20.74-9.15-10.18-5.22-5.63-12.87-3.28-13.59 3.39-4.45-3.29-13.57 14.74.84 22.74-1.74-1.88-4.1-9.4-1.91-12.45Z"/><path fill="#EEE" d="M113.64 128.26c15.08-10.03 8.78-44.68 6.64-54.54-.39-1.77-.96-3.47-1.65-5.15C112.93 54.8 98.87 43.7 85.4 50.1c-28.69 13.63-24.42 57.12-24.15 78.49l52.39-.33Z"/><path stroke="#000" stroke-linejoin="round" stroke-width="1.645" d="m113.64 128.26-52.39.33c-.27-21.38-4.54-64.88 24.17-78.5 13.47-6.39 27.51 4.71 33.21 18.48.69 1.68 1.27 3.4 1.65 5.18 2.15 9.88 8.42 44.49-6.64 54.51Z"/><path fill="#EEE" fill-rule="evenodd" d="m146.89 66.6 12.1 14.77s-38.13 40.12-55.24 41.64c-9.4.83-27.89-27.88-27.89-27.88L92.93 68.6l13.18 26.53 40.78-28.53Z"/><path stroke="#000" stroke-width="1.645" d="M93.83 70.53 106 94.31l40.89-27.71 12.1 14.77s-35.94 39.87-56.95 41.74"/><path fill="#F5B9AB" d="m150.91 63.93-4.79 3.08 12.03 15.24 3.79-3.06c4.02-3.26 4.66-9.16 1.43-13.21a9.443 9.443 0 0 0-12.46-2.05Z"/><path stroke="#000" stroke-linejoin="round" stroke-width="1.645" d="M150.91 63.93a9.443 9.443 0 0 1 12.46 2.05c3.23 4.05 2.59 9.95-1.43 13.21l-3.79 3.06-12.03-15.24 4.79-3.08Z"/><path fill="#EEE" d="m143.36 231.6-20.69 10.79 3.56 13.48 27.63-17.01-8.13 1.1-2.37-8.36Z"/><path stroke="#000" stroke-linejoin="round" stroke-width="1.399" d="m143.36 231.6 2.37 8.36 8.13-1.1-27.63 17.01-3.56-13.48 20.69-10.79Z"/></svg>